<?xml version="1.0" encoding="UTF-8"?>
<!-- Generator: Adobe Illustrator 15.0.0, SVG Export Plug-In . SVG Version: 6.00 Build 0)  -->
<!DOCTYPE svg PUBLIC "-//W3C//DTD SVG 1.1//EN" "http://www.w3.org/Graphics/SVG/1.1/DTD/svg11.dtd">
<svg version="1.1" xmlns="http://www.w3.org/2000/svg" xmlns:xlink="http://www.w3.org/1999/xlink" x="0px" y="0px" width="580px" height="580px" viewBox="0 0 580 580" enable-background="new 0 0 580 580" xml:space="preserve">
<g id="Layer_2_1_">
	<g id="Layer_2">
		<g id="g1327">
			<path id="path1329" fill="#111111" stroke="#EEEEEE" stroke-width="3.408" d="M66.275,1.768     c-41.335,0-64.571,21.371-64.571,65.036v450.123c0,40.844,20.895,62.229,62.192,62.229h452.024     c41.307,0,62.229-20.315,62.229-62.229V66.804c0-42.602-20.923-65.036-63.521-65.036C514.625,1.768,66.133,1.625,66.275,1.768z"/>
		</g>
	</g>
</g>
<g id="Layer_1">
	<g>
		<g>
			<path fill="#FFFFFF" d="M345.486,161.734c-4.009-20.047-16.843-28.07-36.09-36.09c-18.976-7.906-64.454-17.355-98.008-17.619     c-33.553,0.266-79.012,9.713-97.986,17.619c-19.246,8.02-32.081,16.042-36.09,36.09L62.881,272.885v153.137h24.868v24.016     c0,29.283,42.836,29.283,42.836,0v-24.016h79.123h0.24h82.245v24.016c0,29.283,42.858,29.283,42.858,0v-24.016h24.867V272.885     L345.486,161.734z M150.3,136.08h59.648h62.551c12.029,0,12.029,18.034,0,18.034h-62.683H150.3     C138.27,154.114,138.27,136.08,150.3,136.08z M109.188,378.011c-11.351,0-20.566-9.193-20.566-20.545s9.215-20.568,20.566-20.568     c11.352,0,20.545,9.217,20.545,20.568S120.54,378.011,109.188,378.011z M209.948,284.588H100.914     c-10.674,0-12.903-7.666-11.855-15.393l11.244-80.607c1.542-9.793,4.847-16.243,17.554-16.243h91.96h95.104     c12.708,0,16.033,6.45,17.575,16.243l11.244,80.607c1.048,7.727-1.202,15.393-11.877,15.393H209.948z M313.61,378.011     c-11.351,0-20.566-9.193-20.566-20.545s9.216-20.568,20.566-20.568c11.352,0,20.545,9.217,20.545,20.568     S324.962,378.011,313.61,378.011z"/>
			<path fill="#FFFFFF" d="M209.948,108.003c0.473,0,0.963,0.019,1.441,0.022c0.481-0.003,0.965-0.022,1.441-0.022H209.948z"/>
		</g>
		<polygon fill="#FFFFFF" points="517.119,108 395.119,108 395.119,330 448.119,330 448.119,472 464.119,472 464.119,330     517.119,330   "/>
	</g>
</g>
</svg>
