<?xml version="1.0" encoding="UTF-8"?>
<!-- Generator: Adobe Illustrator 15.0.0, SVG Export Plug-In . SVG Version: 6.00 Build 0)  -->
<!DOCTYPE svg PUBLIC "-//W3C//DTD SVG 1.1//EN" "http://www.w3.org/Graphics/SVG/1.1/DTD/svg11.dtd">
<svg version="1.1" xmlns="http://www.w3.org/2000/svg" xmlns:xlink="http://www.w3.org/1999/xlink" x="0px" y="0px" width="580px" height="580px" viewBox="0 0 580 580" enable-background="new 0 0 580 580" xml:space="preserve">
<g id="Layer_2">
	<g id="g1327">
		<path id="path1329" fill="#111111" stroke="#EEEEEE" stroke-width="3.408" d="M66.275,1.768    c-41.335,0-64.571,21.371-64.571,65.036v450.123c0,40.844,20.895,62.229,62.192,62.229H515.92    c41.307,0,62.229-20.315,62.229-62.229V66.804c0-42.601-20.923-65.036-63.521-65.036C514.624,1.768,66.133,1.625,66.275,1.768z"/>
	</g>
</g>
<g id="Layer_3">
</g>
<g id="Layer_4">
	<g>
		<path fill="#FFFFFF" d="M45.304,171.455c2.457,0,4.914-0.938,6.789-2.812l78.853-78.853c3.749-3.749,3.749-9.828,0-13.577    c-3.75-3.75-9.828-3.75-13.577,0l-78.853,78.853c-3.749,3.749-3.749,9.828,0,13.577C40.391,170.518,42.847,171.455,45.304,171.455    z"/>
		<path fill="#FFFFFF" d="M152.038,141.47c2.457,0,4.914-0.938,6.789-2.812l78.853-78.853c3.749-3.749,3.749-9.828,0-13.577    s-9.828-3.749-13.577,0l-78.853,78.853c-3.749,3.749-3.749,9.828,0,13.577C147.124,140.532,149.581,141.47,152.038,141.47z"/>
		<path fill="#FFFFFF" d="M110.879,186.322c-3.749-3.749-9.828-3.749-13.577,0L35.42,248.203c-3.749,3.749-3.749,9.828,0,13.577    c1.875,1.875,4.332,2.812,6.789,2.812s4.914-0.938,6.789-2.812l61.881-61.881C114.628,196.15,114.628,190.071,110.879,186.322z"/>
		<path fill="#FFFFFF" d="M179.684,199.69c1.875,1.875,4.332,2.812,6.789,2.812c2.457,0,4.914-0.938,6.789-2.812l78.853-78.853    c3.749-3.749,3.749-9.828,0-13.577c-3.75-3.75-9.828-3.75-13.577,0l-78.853,78.853    C175.935,189.862,175.935,195.941,179.684,199.69z"/>
		<path fill="#FFFFFF" d="M360.58,182.594c1.874,1.875,4.331,2.812,6.788,2.812s4.914-0.938,6.788-2.812l78.854-78.853    c3.75-3.749,3.75-9.828,0-13.577c-3.748-3.75-9.828-3.749-13.576,0l-78.854,78.853C356.83,172.766,356.83,178.845,360.58,182.594z    "/>
		<path fill="#FFFFFF" d="M477.325,155.454c2.397,0,4.798-0.893,6.661-2.688l58.346-56.225c3.817-3.679,3.93-9.757,0.251-13.575    c-3.681-3.818-9.756-3.93-13.575-0.251l-58.346,56.225c-3.817,3.679-3.93,9.757-0.251,13.575    C472.296,154.471,474.809,155.454,477.325,155.454z"/>
		<path fill="#FFFFFF" d="M544.659,160.097c-3.703-3.792-9.781-3.867-13.576-0.161l-60.467,59.053    c-3.793,3.705-3.865,9.783-0.16,13.576c1.881,1.926,4.373,2.893,6.869,2.893c2.418,0,4.84-0.909,6.707-2.732l60.467-59.053    C548.292,169.968,548.364,163.89,544.659,160.097z"/>
		<path fill="#FFFFFF" d="M429.705,187.453l-27.231,25.11c-3.898,3.594-4.145,9.668-0.55,13.566c1.893,2.052,4.473,3.092,7.06,3.092    c2.327,0,4.661-0.841,6.506-2.543l27.231-25.11c3.898-3.594,4.145-9.668,0.55-13.566    C439.676,184.104,433.601,183.858,429.705,187.453z"/>
		<path fill="#FFFFFF" d="M304.178,175.915c2.398,0,4.799-0.893,6.662-2.688l39.253-37.838c3.817-3.68,3.929-9.758,0.249-13.575    c-3.681-3.818-9.758-3.927-13.575-0.25l-39.253,37.838c-3.817,3.68-3.929,9.758-0.249,13.575    C299.149,174.932,301.662,175.915,304.178,175.915z"/>
		<path fill="#FFFFFF" d="M313.695,99.504c2.506,0,5.009-0.975,6.891-2.915l46.324-47.739c3.692-3.805,3.602-9.883-0.204-13.575    c-3.806-3.693-9.885-3.6-13.575,0.204l-46.324,47.739c-3.692,3.805-3.602,9.883,0.204,13.575    C308.876,98.604,311.287,99.504,313.695,99.504z"/>
		<path fill="#FFFFFF" d="M498.728,316.097L289.323,204.413c-3.154-1.683-6.943-1.683-10.098,0L69.82,316.097    c-2.999,1.599-5.062,4.524-5.563,7.886s0.62,6.761,3.022,9.165L81.23,347.11c3.044,3.047,7.615,3.976,11.61,2.364l41.128-16.62    V536.12c0,6.249,5.066,11.315,11.316,11.315h26.897c6.25,0,11.316-5.066,11.316-11.315V319.227l100.69-11.916l99.311,11.951    V536.12c0,6.249,5.065,11.315,11.315,11.315h26.897c6.249,0,11.315-5.066,11.315-11.315v-203.52l42.617,17.19    c1.301,0.524,2.662,0.779,4.012,0.779c2.825,0,5.6-1.117,7.657-3.212l14.021-14.277c2.37-2.413,3.463-5.802,2.95-9.145    C503.771,320.594,501.712,317.688,498.728,316.097z"/>
	</g>
</g>
</svg>