<?xml version="1.0" encoding="UTF-8"?>
<!-- Generator: Adobe Illustrator 15.0.0, SVG Export Plug-In . SVG Version: 6.00 Build 0)  -->
<svg width="580px" height="580px" enable-background="new 0 0 580 580" version="1.1" viewBox="0 0 580 580" xml:space="preserve" xmlns="http://www.w3.org/2000/svg" xmlns:cc="http://creativecommons.org/ns#" xmlns:dc="http://purl.org/dc/elements/1.1/" xmlns:rdf="http://www.w3.org/1999/02/22-rdf-syntax-ns#"><metadata><rdf:RDF><cc:Work rdf:about=""><dc:format>image/svg+xml</dc:format><dc:type rdf:resource="http://purl.org/dc/dcmitype/StillImage"/><dc:title/></cc:Work></rdf:RDF></metadata>
		<path d="m66.275 1.768c-41.335 0-64.571 21.371-64.571 65.036v450.12c0 40.844 20.895 62.229 62.192 62.229h452.02c41.307 0 62.229-20.315 62.229-62.229v-450.12c0-42.601-20.923-65.036-63.521-65.036-4e-3 0-448.5-0.143-448.35 0z" fill="#111" stroke="#eee" stroke-width="3.408"/>
		<path d="m560.65 205.91-264.78-141.22c-3.9881-2.1281-8.7791-2.1281-12.768 0l-264.78 141.22c-3.7921 2.0218-6.4006 5.7204-7.0341 9.9714-0.63349 4.2511 0.78396 8.549 3.8212 11.589l17.64 17.654c3.849 3.8528 9.6288 5.0275 14.68 2.9892l52.004-21.015v261.02c0 7.9015 6.4057 14.307 14.309 14.307h18.01c7.9028 0 14.309-6.4057 14.309-14.307v-278.25l143.32-31.067 143.57 31.111v278.21c0 7.9015 6.4044 14.307 14.307 14.307h16.01c7.9015 0 14.307-6.4057 14.307-14.307v-261.34l53.887 21.736c1.645 0.66257 3.366 0.985 5.073 0.985 3.5721 0 7.0809-1.4124 9.6819-4.0614l17.729-18.053c2.9968-3.0511 4.3788-7.3363 3.7301-11.563-0.64613-4.2245-3.2496-7.899-7.0228-9.9108z" fill="#fff"/>
<g id="Layer_2_1_" transform="matrix(.6 0 0 .6 115.51 260.65)" stroke-width="1.6667"><path d="m126.36 361.7h30v-103.4h267.28v103.4h30v-103.4h56.296v-50h-439.88v50h56.296z" fill="#fff" stroke-width="1.6667"/></g></svg>
