<?xml version="1.0" encoding="UTF-8" standalone="no"?>
<svg
   xmlns:dc="http://purl.org/dc/elements/1.1/"
   xmlns:cc="http://creativecommons.org/ns#"
   xmlns:rdf="http://www.w3.org/1999/02/22-rdf-syntax-ns#"
   xmlns:svg="http://www.w3.org/2000/svg"
   xmlns="http://www.w3.org/2000/svg"
   xmlns:sodipodi="http://sodipodi.sourceforge.net/DTD/sodipodi-0.dtd"
   xmlns:inkscape="http://www.inkscape.org/namespaces/inkscape"
   version="1.1"
   x="0px"
   y="0px"
   viewBox="-54.167 -10.25 140.74021 147.34773"
   enable-background="new -54.167 -10.25 140.833 124.75"
   xml:space="preserve"
   id="svg2"
   inkscape:version="0.91 r13725"
   sodipodi:docname="noun_Blind_710054.svg"
   width="140.7402"
   height="147.34773"
   inkscape:export-filename="/home/pclf/Téléchargements/noun_Blind_710054.svg.png"
   inkscape:export-xdpi="194.06"
   inkscape:export-ydpi="194.06"><metadata
     id="metadata16"><rdf:RDF><cc:Work
         rdf:about=""><dc:format>image/svg+xml</dc:format><dc:type
           rdf:resource="http://purl.org/dc/dcmitype/StillImage" /><dc:title></dc:title></cc:Work></rdf:RDF></metadata><defs
     id="defs14" /><sodipodi:namedview
     pagecolor="#ffffff"
     bordercolor="#666666"
     borderopacity="1"
     objecttolerance="10"
     gridtolerance="10"
     guidetolerance="10"
     inkscape:pageopacity="0"
     inkscape:pageshadow="2"
     inkscape:window-width="1301"
     inkscape:window-height="744"
     id="namedview12"
     showgrid="false"
     fit-margin-top="0"
     fit-margin-left="0"
     fit-margin-right="0"
     fit-margin-bottom="0"
     inkscape:zoom="1.5134269"
     inkscape:cx="70.416496"
     inkscape:cy="70.039735"
     inkscape:window-x="65"
     inkscape:window-y="24"
     inkscape:window-maximized="1"
     inkscape:current-layer="svg2" /><rect
     style="fill:#000000;fill-opacity:1"
     id="rect3348"
     width="140.7402"
     height="147.34773"
     x="-54.167"
     y="-10.25" /><g
     id="g3344"
     style="fill:#ffffff"
     transform="translate(19.822563,7.9290249)"><circle
       id="circle4"
       r="10.841"
       cy="6.0250001"
       cx="-9.7279997"
       style="fill:#ffffff" /><path
       id="path6"
       d="m -7.385,43.973 c 2.158,1.043 5.199,2.021 9.043,2.021 3.645,0 8.008,-0.885 13.004,-3.421 l 32.717,65.735 3.58,-1.783 L 18.124,40.55 C 20.119,39.008 20.69,36.195 19.341,33.998 17.896,31.646 14.818,30.909 12.464,32.355 6.252,36.17 0.58,37.012 -3.51,34.725 -4.354,34.253 -5.118,33.642 -5.793,32.932 l 0.272,-1.89 c 0.788,-5.466 -3.004,-10.537 -8.47,-11.324 -5.464,-0.786 -10.536,3.005 -11.324,8.471 l -4,27.75 c -0.018,0.123 -0.021,0.244 -0.034,0.367 -0.774,4.648 -1.538,9.874 -2.307,16.624 -0.566,4.98 -1.25,10.084 -2.424,11.615 -3.799,4.951 -6.707,9.82 -10.558,14.73 -5.453,6.947 4.254,12.285 9.244,5.924 3.414,-4.352 6.828,-8.701 10.242,-13.051 4.84,-6.17 4.631,-16.23 5.894,-23.771 3.828,8.268 7.654,16.533 11.482,24.801 1.771,3.828 3.545,7.656 5.318,11.486 3.308,7.146 13.509,3.445 10.033,-4.059 C 2.641,89.953 -1.288,79.301 -6.222,68.65 c -1.351,-2.92 -3.374,-5.771 -3.496,-8.869 0.081,-0.323 0.148,-0.653 0.197,-0.99 l 2.136,-14.818 z"
       style="fill:#ffffff"
       inkscape:connector-curvature="0" /></g></svg>