<?xml version="1.0" encoding="UTF-8"?>
<!-- Generator: Adobe Illustrator 15.0.0, SVG Export Plug-In . SVG Version: 6.00 Build 0)  -->
<!DOCTYPE svg PUBLIC "-//W3C//DTD SVG 1.1//EN" "http://www.w3.org/Graphics/SVG/1.1/DTD/svg11.dtd">
<svg version="1.1" xmlns="http://www.w3.org/2000/svg" xmlns:xlink="http://www.w3.org/1999/xlink" x="0px" y="0px" width="580px" height="580px" viewBox="0 0 580 580" enable-background="new 0 0 580 580" xml:space="preserve">
<g id="Layer_2">
	<g id="g1327">
		<path id="path1329" fill="#111111" stroke="#EEEEEE" stroke-width="3.408" d="M66.275,1.768    c-41.335,0-64.571,21.371-64.571,65.036v450.123c0,40.844,20.894,62.229,62.192,62.229H515.92    c41.307,0,62.229-20.316,62.229-62.229V66.804c0-42.601-20.923-65.036-63.522-65.036C514.624,1.768,66.133,1.625,66.275,1.768z"/>
	</g>
</g>
<g id="svg2" inkscape:output_extension="org.inkscape.output.svg.inkscape" inkscape:version="0.46" sodipodi:docname="waste_bin.svg" sodipodi:version="0.32" xmlns:inkscape="http://www.inkscape.org/namespaces/inkscape" xmlns:rdf="http://www.w3.org/1999/02/22-rdf-syntax-ns#" xmlns:svg="http://www.w3.org/2000/svg" xmlns:sodipodi="http://sodipodi.sourceforge.net/DTD/sodipodi-0.dtd" xmlns:cc="http://creativecommons.org/ns#" xmlns:dc="http://purl.org/dc/elements/1.1/">
	<path fill="#FFFFFF" d="M83.01,83.01v413.98h413.98V83.01H83.01z M141.645,481.299c-15.077,0-27.299-12.223-27.299-27.299   c0-15.078,12.222-27.299,27.299-27.299s27.299,12.221,27.299,27.299C168.944,469.076,156.722,481.299,141.645,481.299z    M141.645,371.965c-15.077,0-27.299-12.221-27.299-27.299c0-15.076,12.222-27.299,27.299-27.299s27.299,12.223,27.299,27.299   C168.944,359.744,156.722,371.965,141.645,371.965z M141.645,262.633c-15.077,0-27.299-12.222-27.299-27.299   s12.222-27.299,27.299-27.299s27.299,12.222,27.299,27.299S156.722,262.633,141.645,262.633z M141.645,153.3   c-15.077,0-27.299-12.222-27.299-27.299s12.222-27.299,27.299-27.299s27.299,12.222,27.299,27.299S156.722,153.3,141.645,153.3z    M240.548,481.299c-15.077,0-27.299-12.223-27.299-27.299c0-15.078,12.222-27.299,27.299-27.299s27.299,12.221,27.299,27.299   C267.848,469.076,255.625,481.299,240.548,481.299z M240.548,371.965c-15.077,0-27.299-12.221-27.299-27.299   c0-15.076,12.222-27.299,27.299-27.299s27.299,12.223,27.299,27.299C267.848,359.744,255.625,371.965,240.548,371.965z    M240.548,262.633c-15.077,0-27.299-12.222-27.299-27.299s12.222-27.299,27.299-27.299s27.299,12.222,27.299,27.299   S255.625,262.633,240.548,262.633z M240.548,153.3c-15.077,0-27.299-12.222-27.299-27.299s12.222-27.299,27.299-27.299   s27.299,12.222,27.299,27.299S255.625,153.3,240.548,153.3z M339.452,481.299c-15.078,0-27.3-12.223-27.3-27.299   c0-15.078,12.222-27.299,27.3-27.299c15.076,0,27.299,12.221,27.299,27.299C366.751,469.076,354.528,481.299,339.452,481.299z    M339.452,371.965c-15.078,0-27.3-12.221-27.3-27.299c0-15.076,12.222-27.299,27.3-27.299c15.076,0,27.299,12.223,27.299,27.299   C366.751,359.744,354.528,371.965,339.452,371.965z M339.452,262.633c-15.078,0-27.3-12.222-27.3-27.299s12.222-27.299,27.3-27.299   c15.076,0,27.299,12.222,27.299,27.299S354.528,262.633,339.452,262.633z M339.452,153.3c-15.078,0-27.3-12.222-27.3-27.299   s12.222-27.299,27.3-27.299c15.076,0,27.299,12.222,27.299,27.299S354.528,153.3,339.452,153.3z M438.355,481.299   c-15.078,0-27.3-12.223-27.3-27.299c0-15.078,12.222-27.299,27.3-27.299c15.076,0,27.299,12.221,27.299,27.299   C465.654,469.076,453.432,481.299,438.355,481.299z M438.355,371.965c-15.078,0-27.3-12.221-27.3-27.299   c0-15.076,12.222-27.299,27.3-27.299c15.076,0,27.299,12.223,27.299,27.299C465.654,359.744,453.432,371.965,438.355,371.965z    M438.355,262.633c-15.078,0-27.3-12.222-27.3-27.299s12.222-27.299,27.3-27.299c15.076,0,27.299,12.222,27.299,27.299   S453.432,262.633,438.355,262.633z M438.355,153.3c-15.078,0-27.3-12.222-27.3-27.299s12.222-27.299,27.3-27.299   c15.076,0,27.299,12.222,27.299,27.299S453.432,153.3,438.355,153.3z"/>
	<circle opacity="0.5" fill="#FFFFFF" cx="141.645" cy="126" r="27.5"/>
	<ellipse opacity="0.5" fill="#FFFFFF" cx="137.831" cy="122.688" rx="23.085" ry="22.583"/>
	<circle opacity="0.5" fill="#FFFFFF" cx="240.548" cy="126" r="27.5"/>
	<ellipse opacity="0.5" fill="#FFFFFF" cx="236.734" cy="122.688" rx="23.085" ry="22.583"/>
	<circle opacity="0.5" fill="#FFFFFF" cx="339.452" cy="126" r="27.5"/>
	<ellipse opacity="0.5" fill="#FFFFFF" cx="335.637" cy="122.688" rx="23.084" ry="22.583"/>
	<circle opacity="0.5" fill="#FFFFFF" cx="438.355" cy="126" r="27.5"/>
	<ellipse opacity="0.5" fill="#FFFFFF" cx="434.541" cy="122.688" rx="23.084" ry="22.583"/>
	<circle opacity="0.5" fill="#FFFFFF" cx="141.645" cy="235.333" r="27.5"/>
	<ellipse opacity="0.5" fill="#FFFFFF" cx="137.831" cy="232.021" rx="23.085" ry="22.583"/>
	<circle opacity="0.5" fill="#FFFFFF" cx="240.548" cy="235.333" r="27.5"/>
	<ellipse opacity="0.5" fill="#FFFFFF" cx="236.734" cy="232.021" rx="23.085" ry="22.583"/>
	<circle opacity="0.5" fill="#FFFFFF" cx="339.452" cy="235.333" r="27.5"/>
	<ellipse opacity="0.5" fill="#FFFFFF" cx="335.637" cy="232.021" rx="23.084" ry="22.583"/>
	<circle opacity="0.5" fill="#FFFFFF" cx="438.355" cy="235.333" r="27.5"/>
	<ellipse opacity="0.5" fill="#FFFFFF" cx="434.541" cy="232.021" rx="23.084" ry="22.583"/>
	<circle opacity="0.5" fill="#FFFFFF" cx="141.645" cy="344.666" r="27.5"/>
	<ellipse opacity="0.5" fill="#FFFFFF" cx="137.831" cy="341.354" rx="23.085" ry="22.584"/>
	<circle opacity="0.5" fill="#FFFFFF" cx="240.548" cy="344.666" r="27.5"/>
	<ellipse opacity="0.5" fill="#FFFFFF" cx="236.734" cy="341.354" rx="23.085" ry="22.584"/>
	<circle opacity="0.5" fill="#FFFFFF" cx="339.452" cy="344.666" r="27.5"/>
	<ellipse opacity="0.5" fill="#FFFFFF" cx="335.637" cy="341.354" rx="23.084" ry="22.584"/>
	<circle opacity="0.5" fill="#FFFFFF" cx="438.355" cy="344.666" r="27.5"/>
	<ellipse opacity="0.5" fill="#FFFFFF" cx="434.541" cy="341.354" rx="23.084" ry="22.584"/>
	<circle opacity="0.5" fill="#FFFFFF" cx="141.645" cy="454" r="27.5"/>
	<ellipse opacity="0.5" fill="#FFFFFF" cx="137.831" cy="450.688" rx="23.085" ry="22.584"/>
	<circle opacity="0.5" fill="#FFFFFF" cx="240.548" cy="454" r="27.5"/>
	<ellipse opacity="0.5" fill="#FFFFFF" cx="236.734" cy="450.688" rx="23.085" ry="22.584"/>
	<circle opacity="0.5" fill="#FFFFFF" cx="339.452" cy="454" r="27.5"/>
	<ellipse opacity="0.5" fill="#FFFFFF" cx="335.637" cy="450.688" rx="23.084" ry="22.584"/>
	<circle opacity="0.5" fill="#FFFFFF" cx="438.355" cy="454" r="27.5"/>
	<ellipse opacity="0.5" fill="#FFFFFF" cx="434.541" cy="450.688" rx="23.084" ry="22.584"/>
</g>
</svg>