<?xml version="1.0" encoding="UTF-8" standalone="no"?>
<!-- Generator: Adobe Illustrator 15.0.0, SVG Export Plug-In . SVG Version: 6.00 Build 0)  -->

<svg
   xmlns:dc="http://purl.org/dc/elements/1.1/"
   xmlns:cc="http://creativecommons.org/ns#"
   xmlns:rdf="http://www.w3.org/1999/02/22-rdf-syntax-ns#"
   xmlns:svg="http://www.w3.org/2000/svg"
   xmlns="http://www.w3.org/2000/svg"
   xmlns:sodipodi="http://sodipodi.sourceforge.net/DTD/sodipodi-0.dtd"
   xmlns:inkscape="http://www.inkscape.org/namespaces/inkscape"
   version="1.1"
   x="0px"
   y="0px"
   width="580px"
   height="580px"
   viewBox="0 0 580 580"
   enable-background="new 0 0 580 580"
   xml:space="preserve"
   id="svg26"
   sodipodi:docname="wheelchair.svg"
   inkscape:version="0.92.3 (2405546, 2018-03-11)"><metadata
   id="metadata32"><rdf:RDF><cc:Work
       rdf:about=""><dc:format>image/svg+xml</dc:format><dc:type
         rdf:resource="http://purl.org/dc/dcmitype/StillImage" /></cc:Work></rdf:RDF></metadata><defs
   id="defs30" /><sodipodi:namedview
   pagecolor="#ffffff"
   bordercolor="#666666"
   borderopacity="1"
   objecttolerance="10"
   gridtolerance="10"
   guidetolerance="10"
   inkscape:pageopacity="0"
   inkscape:pageshadow="2"
   inkscape:window-width="1533"
   inkscape:window-height="845"
   id="namedview28"
   showgrid="false"
   inkscape:zoom="0.40689655"
   inkscape:cx="-287.54237"
   inkscape:cy="290"
   inkscape:window-x="67"
   inkscape:window-y="27"
   inkscape:window-maximized="1"
   inkscape:current-layer="svg26" />
<g
   id="Layer_2">
	<g
   id="g1327">
		<path
   id="path1329"
   d="M 66.275,1.768 C 24.94,1.768 1.704,23.139 1.704,66.804 v 450.123 c 0,40.844 20.894,62.229 62.192,62.229 H 515.92 c 41.307,0 62.229,-20.316 62.229,-62.229 V 66.804 c 0,-42.601 -20.923,-65.036 -63.522,-65.036 -0.003,0 -448.494,-0.143 -448.352,0 z"
   inkscape:connector-curvature="0"
   style="fill:#111111;stroke:#eeeeee;stroke-width:3.40799999" />
	</g>
</g>
<g
   id="svg2"
   inkscape:version="0.46"
   sodipodi:docname="waste_bin.svg"
   sodipodi:version="0.32"
   inkscape:output_extension="org.inkscape.output.svg.inkscape">
	
	<g
   id="g17">
		
		
	</g>
	<g
   id="g23"
   transform="matrix(1.26,0,0,1.26,-75.473003,-151.72044)"
   style="stroke-width:0.79365075">
		<path
   d="m 342.217,437.339 c -15.929,25.149 -39.905,47.243 -70.169,54.6 -40.365,10.982 -85.615,-11.531 -103.5,-47.422 -16.907,-31.588 -11.047,-73.867 15.698,-98.653 3.79,-5.223 14.139,-7.297 12.616,-14.85 -1.023,-8.705 2.822,-21.918 -2.894,-27.037 -36.01,17.301 -63.207,52.962 -65.221,92.365 -4.155,34.753 11.437,69.903 38.426,92.657 18.874,16.398 43.613,26.624 78.986,30.43 39.327,2.627 78.248,-15.882 102.54,-45.394 14.374,-9.651 0.178,-31.529 -6.482,-36.696 z"
   id="path19"
   inkscape:connector-curvature="0"
   style="fill:#ffffff;stroke-width:0.79365075" />
		<path
   d="m 444.71,441.295 c -6.855,0.425 -19.948,10.282 -37.984,12.391 -17.17,-33.616 -33.533,-67.896 -50.54,-101.705 -29.584,-0.022 -78.005,0.061 -107.675,-0.077 0.043,-1.12 -4.557,-12.081 1.266,-25.097 26.27,0 52.542,0 78.813,0 0,-8.365 0,-16.729 0,-25.094 -26.82,-0.354 -53.841,1.172 -80.5,-0.9 -1.201,-19.005 -0.765,-38.104 -0.291,-57.136 6.61,-8.985 26.202,-12.952 25.343,-29.25 3.192,-20.629 -21,-38.195 -40.608,-30.382 -19.807,5.621 -27.266,31.79 -13.025,46.262 0.421,48.105 0.6,96.214 1.306,144.315 22.885,0.004 102.03,-2.771 117.144,0.556 15.206,30.252 51.815,104.661 55.899,111.062 16.198,-5.36 41.618,-17.482 57.726,-23.092 0.83,0.691 0.637,-22.48 -6.874,-21.853 z"
   id="path21"
   inkscape:connector-curvature="0"
   style="fill:#ffffff;stroke-width:0.79365075" />
	</g>
</g>
</svg>